<?xml version="1.0" standalone="no"?>
<!DOCTYPE svg PUBLIC "-//W3C//DTD SVG 20010904//EN"
 "http://www.w3.org/TR/2001/REC-SVG-20010904/DTD/svg10.dtd">
<svg version="1.0" xmlns="http://www.w3.org/2000/svg"
 width="700.000000pt" height="700.000000pt" viewBox="0 0 700.000000 700.000000"
 preserveAspectRatio="xMidYMid meet">
<metadata>
Created by potrace 1.11, written by Peter Selinger 2001-2013
</metadata>
<g transform="translate(0.000000,700.000000) scale(0.100000,-0.100000)"
fill="#000000" stroke="none">
<path d="M3215 6989 c-745 -64 -1437 -353 -1995 -835 -551 -475 -938 -1101
-1114 -1799 -73 -291 -101 -529 -101 -860 1 -404 50 -722 171 -1090 254 -772
784 -1445 1476 -1876 447 -278 924 -443 1483 -511 130 -16 600 -16 730 0 451
55 818 163 1195 351 729 364 1312 973 1639 1714 144 325 238 674 283 1052 16
139 16 595 0 730 -61 497 -198 932 -418 1327 -538 964 -1489 1620 -2569 1772
-249 35 -546 45 -780 25z m1156 -1749 c246 -47 363 -331 319 -771 -10 -92 -31
-232 -47 -296 -4 -17 -1 -23 11 -23 30 0 276 -99 371 -148 129 -68 199 -117
280 -194 83 -79 128 -150 151 -237 64 -252 -195 -511 -689 -692 l-119 -43 5
-30 c3 -17 15 -94 27 -171 18 -117 21 -168 17 -315 -5 -189 -16 -248 -67 -357
-105 -226 -336 -274 -637 -133 -111 52 -283 166 -397 264 -48 42 -90 76 -92
76 -2 0 -50 -39 -106 -86 -173 -145 -330 -241 -488 -299 -107 -39 -260 -46
-341 -16 -170 64 -269 279 -269 584 0 96 23 300 45 406 16 76 12 90 -22 91
-25 0 -231 83 -327 132 -282 142 -434 301 -461 480 -9 59 16 156 58 227 38 62
152 173 240 231 110 73 333 175 514 235 9 3 8 19 -3 64 -25 110 -44 290 -44
424 0 291 81 484 235 565 72 37 210 43 320 13 161 -45 352 -155 545 -317 l103
-86 41 39 c201 192 479 352 664 383 68 11 103 11 163 0z"/>
<path d="M2630 5059 c-63 -25 -109 -95 -137 -206 -25 -104 -23 -342 6 -508 13
-71 25 -133 27 -136 2 -3 49 5 106 18 57 12 171 33 255 45 l152 22 90 115 c49
64 125 154 167 201 l77 84 -49 44 c-263 234 -563 373 -694 321z"/>
<path d="M4175 5051 c-145 -42 -410 -211 -524 -335 l-25 -26 46 -48 c61 -64
151 -171 225 -268 l61 -80 157 -23 c86 -13 201 -33 256 -45 88 -20 99 -21 103
-7 28 92 40 223 41 411 0 189 -2 210 -23 270 -27 75 -61 124 -106 151 -40 24
-128 24 -211 0z"/>
<path d="M3439 4508 c-29 -34 -78 -91 -108 -127 l-54 -66 112 -3 c61 -1 161
-1 222 0 l111 3 -94 110 c-141 163 -124 156 -189 83z"/>
<path d="M3231 4131 c-75 -6 -97 -12 -108 -27 -73 -97 -306 -507 -333 -585
-13 -35 -11 -40 55 -164 81 -154 134 -244 223 -381 l67 -103 55 -8 c73 -9 528
-10 610 0 l65 8 43 65 c81 121 172 278 245 421 l72 142 -39 78 c-105 214 -307
538 -340 547 -35 10 -514 15 -615 7z m425 -306 c74 -36 138 -101 172 -173 24
-50 27 -69 27 -157 0 -121 -18 -168 -95 -249 -74 -78 -149 -110 -260 -111 -74
0 -93 4 -150 31 -152 72 -234 225 -209 388 23 139 116 248 252 292 70 23 193
13 263 -21z"/>
<path d="M2875 4093 c-128 -23 -291 -55 -296 -59 -12 -7 80 -283 101 -307 4
-5 27 27 50 70 23 43 72 127 107 186 36 60 63 109 62 111 -2 1 -13 1 -24 -1z"/>
<path d="M4104 4083 c4 -9 30 -54 59 -102 30 -47 75 -126 102 -175 41 -76 49
-86 58 -70 16 28 97 267 97 285 0 12 -31 22 -142 43 -79 15 -151 29 -161 31
-13 2 -17 -1 -13 -12z"/>
<path d="M2285 3946 c-215 -78 -387 -178 -488 -285 -63 -66 -87 -111 -87 -166
0 -114 152 -256 403 -375 111 -52 284 -117 291 -109 2 2 15 45 30 94 15 50 54
158 87 242 l60 152 -32 73 c-17 40 -58 147 -89 238 -34 97 -63 166 -71 167 -8
1 -54 -13 -104 -31z"/>
<path d="M4562 3878 c-19 -57 -58 -165 -88 -241 l-55 -138 54 -137 c30 -75 69
-182 87 -237 18 -55 36 -104 40 -108 18 -20 331 114 457 195 190 124 264 244
218 354 -37 88 -196 216 -380 304 -96 46 -264 110 -289 110 -6 0 -26 -46 -44
-102z"/>
<path d="M4272 3203 c-22 -43 -70 -127 -106 -187 -36 -60 -64 -111 -61 -114 5
-5 114 13 232 39 l91 20 -22 72 c-27 85 -73 214 -85 234 -6 11 -19 -7 -49 -64z"/>
<path d="M2669 3243 c-6 -16 -31 -85 -54 -155 l-43 -127 91 -20 c120 -27 227
-44 233 -39 2 3 -24 52 -59 109 -35 57 -83 139 -106 182 -24 42 -45 77 -47 77
-3 0 -9 -12 -15 -27z"/>
<path d="M2525 2768 c-26 -109 -37 -199 -42 -354 -5 -151 -3 -195 12 -260 31
-138 85 -216 161 -230 148 -28 428 110 669 328 l49 45 -100 114 c-75 86 -208
253 -229 286 0 1 -64 11 -141 22 -126 18 -311 52 -356 67 -12 4 -19 -2 -23
-18z"/>
<path d="M4400 2775 c-67 -17 -268 -52 -369 -64 -51 -7 -77 -15 -83 -26 -16
-27 -169 -216 -246 -303 l-74 -83 47 -42 c246 -218 515 -353 665 -331 135 20
210 246 181 552 -14 151 -42 304 -56 308 -5 1 -35 -4 -65 -11z"/>
<path d="M3300 2653 c52 -67 192 -223 200 -223 10 0 116 117 180 198 l42 52
-222 0 -221 0 21 -27z"/>
</g>
</svg>
